<svg width="97" height="97" viewBox="0 0 97 97" fill="none" xmlns="http://www.w3.org/2000/svg">
<path d="M65.6225 37.3775C65.9014 37.6561 66.1227 37.987 66.2737 38.3512C66.4247 38.7154 66.5024 39.1058 66.5024 39.5C66.5024 39.8942 66.4247 40.2846 66.2737 40.6488C66.1227 41.013 65.9014 41.3439 65.6225 41.6225L44.6225 62.6225C44.3439 62.9014 44.013 63.1227 43.6488 63.2737C43.2846 63.4247 42.8943 63.5024 42.5 63.5024C42.1058 63.5024 41.7154 63.4247 41.3512 63.2737C40.987 63.1227 40.6561 62.9014 40.3775 62.6225L31.3775 53.6225C30.8146 53.0596 30.4983 52.2961 30.4983 51.5C30.4984 50.7039 30.8146 49.9404 31.3775 49.3775C31.9404 48.8146 32.7039 48.4983 33.5 48.4983C34.2961 48.4983 35.0596 48.8146 35.6225 49.3775L42.5 56.2588L61.3775 37.3775C61.6561 37.0986 61.987 36.8773 62.3512 36.7263C62.7154 36.5753 63.1058 36.4976 63.5 36.4976C63.8943 36.4976 64.2846 36.5753 64.6488 36.7263C65.013 36.8773 65.3439 37.0986 65.6225 37.3775ZM87.5 48.5C87.5 56.2135 85.2127 63.7537 80.9273 70.1672C76.642 76.5808 70.551 81.5795 63.4247 84.5313C56.2984 87.4831 48.4568 88.2554 40.8915 86.7506C33.3262 85.2458 26.3771 81.5314 20.9229 76.0772C15.4686 70.6229 11.7542 63.6738 10.2494 56.1085C8.74457 48.5433 9.5169 40.7017 12.4687 33.5753C15.4205 26.449 20.4193 20.3581 26.8328 16.0727C33.2463 11.7873 40.7865 9.5 48.5 9.5C58.8401 9.51092 68.7536 13.6233 76.0651 20.9349C83.3767 28.2464 87.4891 38.1599 87.5 48.5ZM81.5 48.5C81.5 41.9732 79.5646 35.593 75.9385 30.1662C72.3124 24.7394 67.1585 20.5097 61.1286 18.012C55.0986 15.5143 48.4634 14.8608 42.062 16.1341C35.6607 17.4074 29.7806 20.5503 25.1655 25.1655C20.5504 29.7806 17.4074 35.6606 16.1341 42.062C14.8608 48.4634 15.5143 55.0986 18.012 61.1286C20.5097 67.1585 24.7394 72.3124 30.1662 75.9385C35.593 79.5646 41.9732 81.5 48.5 81.5C57.2491 81.4901 65.637 78.0101 71.8236 71.8236C78.0101 65.637 81.4901 57.2491 81.5 48.5Z" fill="#56AC71"/>
</svg>
